# xmcd CD database file
# Copyright (C) 1993-1996 Ti Kan
#
# Track frame offsets:
# 150
# 16675
# 32090
# 42762
# 57215
# 68352
# 86222
# 98690
# 109115
# 122002
# 133940
# 146165
#
# Disc length: 2105 seconds
#
# Revision: 0
# Processed by: cddbd v1.4b41PL1 Copyright (c) Steve Scherf et al.
# Submitted via: inCDius 1.1b5
#
DISCID=9c08370c
DTITLE=Jimmie Davis - Greatest Hits Finest Performances
DYEAR=1900
DGENRE=
TTITLE0=You Are My Sunshine
TTITLE1=Pretending She's You
TTITLE2=It Makes No Difference Now
TTITLE3=I Just Dropped In To Say Goodbye
TTITLE4=Columbus Stockade Blues
TTITLE5=Dating A Memory
TTITLE6=Worried Mind
TTITLE7=I'm Losing My Mind Over You
TTITLE8=Lonesome Whistle
TTITLE9=There Won't Be A Wedding
TTITLE10=Shackles And Chains
TTITLE11=I'll Keep Hanging On
EXTD=
EXTT0=
EXTT1=
EXTT2=
EXTT3=
EXTT4=
EXTT5=
EXTT6=
EXTT7=
EXTT8=
EXTT9=
EXTT10=
EXTT11=
PLAYORDER=
